<svg id="Layer_1" data-name="Layer 1" xmlns="http://www.w3.org/2000/svg" viewBox="0 0 104 104"><defs><style>.cls-1{fill:#60042e;}.cls-2{fill:none;stroke:#fff;stroke-miterlimit:10;stroke-width:3.15px;}.cls-3{fill:#fd3266;}</style></defs><title>iconos</title><circle class="cls-1" cx="52" cy="52" r="52"/><circle class="cls-2" cx="52" cy="52" r="46.48"/><path class="cls-3" d="M40.55,33.19V68.24H32.62v-35Z"/><path class="cls-3" d="M71.65,31.31V60.63c0,2.89.1,5.9.21,7.61h-7l-.33-3.73h-.11a8.88,8.88,0,0,1-8,4.3c-6,0-10.86-5.16-10.86-13.07,0-8.55,5.33-13.53,11.39-13.53,3.14,0,5.55,1.12,6.69,2.88h.1V31.31ZM63.73,53.58a7.71,7.71,0,0,0-.1-1.43A4.71,4.71,0,0,0,59,48.28c-3.62,0-5.46,3.22-5.46,7.23,0,4.28,2.11,7,5.41,7a4.68,4.68,0,0,0,4.58-3.79,7.9,7.9,0,0,0,.16-1.79Z"/></svg>