<svg id="Layer_1" data-name="Layer 1" xmlns="http://www.w3.org/2000/svg" viewBox="0 0 104 104"><defs><style>.cls-1{fill:#dd58a1;}.cls-2{fill:none;stroke:#fff;stroke-miterlimit:10;stroke-width:3.15px;}.cls-3{fill:#fff;}</style></defs><title>iconos</title><circle class="cls-1" cx="52" cy="52" r="52"/><circle class="cls-2" cx="52" cy="52" r="46.48"/><path class="cls-3" d="M76.89,55.84a14.19,14.19,0,0,0-6.25,1.45,13,13,0,0,1-1.41-3.23,9.24,9.24,0,0,1-.12-2.72,22,22,0,0,1,.83-2.94c0-.12-.15-.71-1.54-.73s-2.59.27-2.72.64a13.92,13.92,0,0,0-.58,2.06c-.24,1.26-2.78,5.75-4.22,8.11a8.36,8.36,0,0,1-1-2.37,8.92,8.92,0,0,1-.13-2.72,21.52,21.52,0,0,1,.83-2.94c0-.12-.15-.72-1.54-.73s-2.59.27-2.72.63-.28,1.23-.58,2.07-3.65,8.32-4.53,10.27c-.44,1-.83,1.8-1.11,2.33s0,0,0,.1l-.38.71v0c-.19.33-.39.66-.49.66a4.66,4.66,0,0,1,0-2.15c.5-2.6,1.71-6.65,1.7-6.8s.23-.78-.78-1.14a1.22,1.22,0,0,0-1.42.24c-.08,0-.15.21-.15.21s1.09-4.56-2.08-4.56c-2,0-4.75,2.17-6.11,4.15L35.8,59c-.74.4-1.51.84-2.24,1.23l-.15-.17c-3.85-4.1-11-7-10.68-12.54.11-2,.81-7.3,13.69-13.71,10.55-5.26,19-3.81,20.46-.61C59,37.77,52.37,46.29,41.4,47.51c-4.17.47-6.37-1.14-6.92-1.75s-.66-.66-.88-.54-.13.76,0,1.09a6.5,6.5,0,0,0,4,3.11c2,.67,6.91,1,12.84-1.26C57,45.59,62.23,38.45,60.71,32.48s-11.63-8.07-21.15-4.69c-5.67,2-11.82,5.17-16.24,9.31-5.25,4.9-6.08,9.19-5.73,11,1.22,6.35,10,10.48,13.47,13.54l-.49.27c-1.75.86-8.42,4.35-10.09,8-1.88,4.18.3,7.18,1.75,7.59,4.5,1.25,9.11-1,11.6-4.7s2.18-8.52,1-10.71l0-.08,1.37-.81c.89-.53,1.77-1,2.54-1.43a16.33,16.33,0,0,0-.91,4.58c-.19,2.37.78,5.44,2.06,6.66a2.3,2.3,0,0,0,1.66.53c1.48,0,2.16-1.22,2.9-2.69.91-1.79,1.72-3.87,1.72-3.87s-1,5.62,1.75,5.62c1,0,2-1.31,2.48-2h0l.08-.13a2.26,2.26,0,0,0,.16-.26v0c.41-.7,1.31-2.31,2.66-5,1.74-3.42,3.41-7.71,3.41-7.71a23.81,23.81,0,0,0,.66,2.78,25.53,25.53,0,0,0,1.44,3.23l-.65.89v0c-.32.43-.68.88-1.06,1.34a39.26,39.26,0,0,0-3.23,4.06,1.11,1.11,0,0,0,.29,1.48,2.73,2.73,0,0,0,1.7.27A7.47,7.47,0,0,0,58.4,69a8.6,8.6,0,0,0,2.19-1.15,4.83,4.83,0,0,0,2.08-4.29,8.55,8.55,0,0,0-.79-3l.36-.54A57,57,0,0,0,66,53.49a24.37,24.37,0,0,0,.66,2.78A18.63,18.63,0,0,0,67.9,59a12,12,0,0,0-3.68,4.76c-.79,2.29-.17,3.33,1,3.57A3.61,3.61,0,0,0,67.07,67a8.49,8.49,0,0,0,2.33-1.2c1.34-1,2.64-2.38,2.57-4.25A8.11,8.11,0,0,0,71.39,59a13.09,13.09,0,0,1,6.68-.77c6,.7,7.18,4.44,7,6A4,4,0,0,1,83.12,67c-.41.26-.55.35-.51.54s.24.27.61.22a4.68,4.68,0,0,0,3.26-4.17c.16-3.7-3.36-7.74-9.59-7.7ZM30.65,71.42c-2,2.17-4.77,3-5.95,2.29s-.78-3.93,1.66-6.23A31.14,31.14,0,0,1,31,64c.28-.18.71-.43,1.23-.74a.65.65,0,0,1,.13-.08L32.7,63a8.58,8.58,0,0,1-2.05,8.44Zm14.48-9.84c-.68,1.68-2.14,6-3,5.76S40.9,63.87,42,60.63a14.76,14.76,0,0,1,2.36-4.32c1.09-1.21,2.27-1.62,2.57-1.12C47.25,55.84,45.57,60.53,45.13,61.58Zm11.95,5.71c-.29.15-.56.25-.68.17s.12-.25.12-.25S58,65.6,58.61,64.86c.33-.43.74-.93,1.17-1.49v.16c0,1.94-1.86,3.23-2.7,3.76Zm9.22-2.1c-.22-.17-.19-.66.54-2.23a8.43,8.43,0,0,1,2-2.64,3.36,3.36,0,0,1,.21,1.16A3.8,3.8,0,0,1,66.3,65.19Z"/></svg>