<svg id="Layer_1" data-name="Layer 1" xmlns="http://www.w3.org/2000/svg" viewBox="0 0 104 104"><defs><style>.cls-1{fill:#001f35;}.cls-2{fill:none;stroke:#fff;stroke-miterlimit:10;stroke-width:3.15px;}.cls-3{fill:#34aafb;}</style></defs><title>iconos</title><circle class="cls-1" cx="52" cy="52" r="52"/><circle class="cls-2" cx="52" cy="52" r="46.48"/><path class="cls-3" d="M29.61,32.68a65,65,0,0,1,10.69-.74c4.87,0,8.38.94,10.73,2.83a10.15,10.15,0,0,1,3.72,8.1,11.05,11.05,0,0,1-3.2,8.3c-2.71,2.55-6.75,3.72-11.39,3.72a18.31,18.31,0,0,1-2.7-.18V67.26H29.61Zm7.85,15.89a12.06,12.06,0,0,0,2.63.21c4.21,0,6.81-2.13,6.81-5.68,0-3.22-2.21-5.14-6.2-5.14a15.33,15.33,0,0,0-3.24.26Z"/>


<path class="cls-3" d="M58.41,60.37a15.45,15.45,0,0,0,6.78,1.89c2.39,0,3.41-.81,3.41-2.1s-.81-2-3.73-2.95c-5.3-1.74-7.29-4.62-7.26-7.6,0-4.78,4-8.37,10.35-8.37a16.78,16.78,0,0,1,7.17,1.48l-1.38,5.45a12.94,12.94,0,0,0-5.51-1.44c-1.93,0-3,.77-3,2.05s1,1.87,4.13,2.94c4.83,1.64,6.85,4.13,6.88,7.84,0,4.75-3.7,8.25-11,8.25A18.2,18.2,0,0,1,57,66Z"/></svg>