<svg id="Layer_1" data-name="Layer 1" xmlns="http://www.w3.org/2000/svg" xmlns:xlink="http://www.w3.org/1999/xlink" viewBox="0 0 104 104"><defs><style>.cls-1{fill:url(#linear-gradient);}.cls-2{fill:none;stroke:#fff;stroke-miterlimit:10;stroke-width:3.15px;}.cls-3{fill:#fff;}</style><linearGradient id="linear-gradient" x1="52" y1="12.32" x2="52" y2="101.43" gradientUnits="userSpaceOnUse"><stop offset="0" stop-color="#882cf7"/><stop offset="1" stop-color="#6e2af0"/></linearGradient></defs><title>iconos</title><circle class="cls-1" cx="52" cy="52" r="52"/><circle class="cls-2" cx="52" cy="52" r="46.48"/><path class="cls-3" d="M43.65,46.56V33.21H55.4a19,19,0,0,1,3.24.28,8.16,8.16,0,0,1,2.76,1,5.4,5.4,0,0,1,1.91,2A6.64,6.64,0,0,1,64,39.77q0,3.6-2.16,5.2a9,9,0,0,1-5.51,1.59ZM31.1,23.46V80.54H58.76a29.09,29.09,0,0,0,7.47-1,20.1,20.1,0,0,0,6.48-3,14.58,14.58,0,0,0,4.51-5.15A15.73,15.73,0,0,0,78.9,64a15.75,15.75,0,0,0-2.6-9.15,13.69,13.69,0,0,0-7.87-5.32,14.27,14.27,0,0,0,5.8-4.71,12.56,12.56,0,0,0,2-7.2,15.29,15.29,0,0,0-1.32-6.71,10.81,10.81,0,0,0-3.71-4.36,16.12,16.12,0,0,0-5.76-2.36A35.48,35.48,0,0,0,58,23.46ZM43.65,70.79V55.12H57.32A10.5,10.5,0,0,1,63.87,57c1.66,1.25,2.48,3.34,2.48,6.27A7.82,7.82,0,0,1,65.59,67a5.93,5.93,0,0,1-2,2.28,8.64,8.64,0,0,1-2.95,1.2,16.81,16.81,0,0,1-3.52.36Z"/></svg>