<svg id="Layer_1" data-name="Layer 1" xmlns="http://www.w3.org/2000/svg" viewBox="0 0 104 104"><defs><style>.cls-1{fill:#320059;}.cls-2{fill:none;stroke:#fff;stroke-miterlimit:10;stroke-width:3.15px;}.cls-3{fill:#ea75e7;}</style></defs><title>iconos</title><circle class="cls-1" cx="52" cy="52" r="52"/><circle class="cls-2" cx="52" cy="52" r="46.48"/><path class="cls-3" d="M29.25,33.65A65.11,65.11,0,0,1,40,32.91c4.86,0,8.38,1,10.72,2.83a10.13,10.13,0,0,1,3.72,8.11,11,11,0,0,1-3.2,8.3c-2.71,2.54-6.74,3.72-11.38,3.72a18.56,18.56,0,0,1-2.71-.18V68.24H29.25Zm7.85,15.9a12.12,12.12,0,0,0,2.63.21c4.21,0,6.81-2.13,6.81-5.68,0-3.23-2.21-5.15-6.2-5.15a16.06,16.06,0,0,0-3.24.26Z"/><path class="cls-3" d="M58.71,51.17c0-3.73-.07-6.2-.21-8.39h6.8l.28,4.71h.2a7.45,7.45,0,0,1,6.87-5.28,6.77,6.77,0,0,1,1.69.15V49.8a9.71,9.71,0,0,0-2.14-.22c-2.91,0-4.89,1.54-5.42,4a9.24,9.24,0,0,0-.15,1.76V68.24H58.71Z"/></svg>