<svg id="Layer_1" data-name="Layer 1" xmlns="http://www.w3.org/2000/svg" viewBox="0 0 104 104"><defs><style>.cls-1{fill:#fff;}.cls-2{fill:none;stroke-width:3.15px;}.cls-2,.cls-3{stroke:#fff;stroke-miterlimit:10;}.cls-3{stroke-width:1.02px;}</style></defs><title>iconos</title><circle cx="52" cy="52" r="52"/><circle class="cls-1" cx="52" cy="53" r="45"/><circle class="cls-2" cx="52" cy="52" r="46.48"/><path class="cls-3" d="M96.69,52.05c0-25.43-20.3-46-45.35-46S6,26.62,6,52.05A46,46,0,0,0,36.59,95.6c1.08-.79,2.33-1.77,2.33-3.43,0-2.53-.05-9-.05-9a31.06,31.06,0,0,1-4.78.34c-7.08,0-9.31-4.57-10.38-7.12a12.39,12.39,0,0,0-5.09-6.13c-1.17-.77-1.44-1.67-.09-1.93,6.27-1.19,7.87,7.17,12,8.51,3,1,6.83.54,8.74-.71a9.22,9.22,0,0,1,3.59-5.93C32.27,69.13,26,65.4,22.69,59.39l-.35-.67-.82-1.9-.24-.69A32.56,32.56,0,0,1,19.8,45.7c0-6.91,2.13-9.52,5-13.21-2.19-7.89.78-13.28.78-13.28s4.61-1,13.32,5.34c4.72-2.05,17.3-2.22,23.25-.46,3.65-2.44,10.34-5.9,13-4.93.73,1.19,2.31,4.65,1,12.25.91,1.67,5.67,5.22,5.69,15.26a40.18,40.18,0,0,1-1.17,9.48l-.39,1.35s-.22.64-.47,1.25l-.29.67c-3.15,7-9.63,9.62-20.09,10.7,3.39,2.16,4.36,4.86,4.36,12.18s-.1,8.3-.07,10c0,1.48,1.19,2.55,2.24,3.36A46,46,0,0,0,96.69,52.05Z"/></svg>