<svg id="Layer_1" data-name="Layer 1" xmlns="http://www.w3.org/2000/svg" viewBox="0 0 104 104"><defs><style>.cls-1{fill:#f7ce0e;}.cls-2{fill:none;stroke:#fff;stroke-miterlimit:10;stroke-width:3.15px;}.cls-3{fill:#fff;}</style></defs><title>iconos</title><circle class="cls-1" cx="52" cy="52" r="52"/><circle class="cls-2" cx="52" cy="52" r="46.48"/><path class="cls-3" d="M16,68.16l8.36-5.06C26,66,27.44,68.38,31,68.38s5.5-1.32,5.5-6.45V27H46.71v35c0,10.63-6.23,15.46-15.32,15.46C23.18,77.54,18.42,73.29,16,68.16Z"/><path class="cls-3" d="M52.3,67.06l8.36-4.83c2.2,3.59,5.06,6.22,10.11,6.22,4.25,0,7-2.12,7-5.05,0-3.52-2.79-4.77-7.48-6.82l-2.56-1.1C60.29,52.33,55.38,48.37,55.38,40c0-7.7,5.86-13.56,15-13.56,6.52,0,11.21,2.27,14.58,8.2l-8,5.13c-1.75-3.15-3.66-4.39-6.59-4.39s-4.91,1.9-4.91,4.39c0,3.08,1.9,4.33,6.3,6.24l2.57,1.1C83.09,50.86,88,54.68,88,63.25c0,9.24-7.26,14.29-17,14.29C61.46,77.54,55.31,73,52.3,67.06Z"/></svg>