<svg id="Layer_1" data-name="Layer 1" xmlns="http://www.w3.org/2000/svg" xmlns:xlink="http://www.w3.org/1999/xlink" viewBox="0 0 105.45 104"><defs><style>.cls-1{fill:none;stroke:#fff;stroke-miterlimit:10;stroke-width:3.15px;}.cls-2{fill:#1d74bb;}.cls-3{clip-path:url(#clip-path);}.cls-4{fill:#55d0f9;}</style><clipPath id="clip-path"><circle class="cls-1" cx="52" cy="52" r="46.48"/></clipPath></defs><title>iconos</title><circle class="cls-2" cx="52" cy="52" r="52"/><g class="cls-3"><path class="cls-4" d="M50.21,99.07,29,62.76l33.28-58H46.94L5.59,74.11S5.59,109.41,50.21,99.07Z"/><path class="cls-4" d="M98.37,64.53H34.84l20.67,35.8S100.89,116.47,98.37,64.53Z"/><path class="cls-4" d="M47.44,36.29C48.45,35.79,67.61,2,67.61,2s38.83,2,37.82,3-4.54,53.45-4.54,53.45l-.5,2H61.56Z"/><path class="cls-4" d="M45.93,40.32,38.36,53.43s-3,6.56,3,7.06a146.33,146.33,0,0,0,15.63,0Z"/></g><circle class="cls-1" cx="52" cy="52" r="46.48"/></svg>