<svg id="Layer_1" data-name="Layer 1" xmlns="http://www.w3.org/2000/svg" viewBox="0 0 104 104"><defs><style>.cls-1{fill:#540239;}.cls-2{fill:none;stroke:#fff;stroke-miterlimit:10;stroke-width:3.15px;}.cls-3{fill:#fd66f2;}</style></defs><title>iconos</title><circle class="cls-1" cx="52" cy="52" r="52"/><circle class="cls-2" cx="52" cy="52" r="46.48"/><path class="cls-3" d="M44,68.24l-3.17-6.35c-1.27-2.45-2.14-4.28-3.1-6.3h-.11c-.73,2-1.59,3.86-2.73,6.29L32,68.24H23L33.1,50.49l-9.77-17.3h9.11l3.07,6.38c1,2.13,1.78,3.86,2.61,5.82h.14c.84-2.22,1.49-3.78,2.39-5.8l2.94-6.4h9l-9.88,17.1,10.4,17.95Z"/><path class="cls-3" d="M80.82,31.31V60.63c0,2.89.1,5.9.21,7.61H74l-.34-3.73h-.11a8.87,8.87,0,0,1-8,4.3c-6,0-10.87-5.16-10.87-13.07,0-8.55,5.33-13.53,11.39-13.53,3.15,0,5.56,1.12,6.69,2.88h.11V31.31ZM72.91,53.58a7.72,7.72,0,0,0-.11-1.43,4.69,4.69,0,0,0-4.58-3.87c-3.63,0-5.47,3.22-5.47,7.23,0,4.28,2.12,7,5.41,7a4.67,4.67,0,0,0,4.58-3.79,7.89,7.89,0,0,0,.17-1.79Z"/></svg>