<svg id="Layer_1" data-name="Layer 1" xmlns="http://www.w3.org/2000/svg" viewBox="0 0 104 104"><defs><style>.cls-1{fill:#1f82db;}.cls-2{fill:none;stroke:#fff;stroke-miterlimit:10;stroke-width:3.15px;}.cls-3,.cls-5{fill:#fff;}.cls-4{fill:#f2f2f2;}.cls-5{opacity:0.05;isolation:isolate;}</style></defs><title>iconos</title><circle class="cls-1" cx="52" cy="52" r="52"/><circle class="cls-2" cx="52" cy="52" r="46.48"/><path class="cls-3" d="M52.23,33.62l-24,10,.79,9.88,23.17-9.91L76.87,33l1-10.1L52.23,33.62Z"/><path class="cls-4" d="M28.26,43.6l.8,9.88,23.17-9.91v-10Z"/><path class="cls-4" d="M77.89,22.93,52.23,33.62v10L76.87,33Z"/><path class="cls-3" d="M28.3,43.6l.8,9.88,35.54.11-.79,13.17-11.7,3.3L40.91,67.22,40.23,59H29.78l1.36,15.79,21.13,6.24,21-6.13L76,43.6Z"/><path class="cls-5" d="M52.23,43.6h-24l.79,9.88,23.17.07V43.6Zm0,26.43-.12,0L40.87,67.22,40.19,59H29.74L31.1,74.83l21.13,6.24Z"/><path class="cls-3" d="M26.11,22.93H77.89l-1,10.1H27.36l-1.25-10.1Z"/><path class="cls-5" d="M52.23,22.93H26.11L27.36,33H52.23V22.93Z"/></svg>