<svg id="Layer_1" data-name="Layer 1" xmlns="http://www.w3.org/2000/svg" viewBox="0 0 104 104"><defs><style>.cls-1{fill:#f06629;}.cls-2{fill:none;stroke:#fff;stroke-miterlimit:10;stroke-width:3.15px;}.cls-3{fill:#fff;}</style></defs><title>iconos</title><circle class="cls-1" cx="52" cy="52" r="52"/><circle class="cls-2" cx="52" cy="52" r="46.48"/><polygon class="cls-3" points="52.03 23.05 51.99 23.05 26.39 23.05 26.64 25.79 29.15 53.97 51.99 53.97 52.03 53.97 64.59 53.97 63.4 67.23 51.99 70.31 51.99 70.31 51.99 70.31 40.6 67.24 39.87 59.08 29.61 59.08 31.04 75.14 51.98 80.95 52.03 80.94 52.03 80.94 72.96 75.14 73.11 73.41 75.51 46.49 75.76 43.74 73.01 43.74 52.03 43.74 51.99 43.74 38.5 43.74 37.57 33.27 51.99 33.27 52.03 33.27 76.69 33.27 76.9 30.98 77.36 25.79 77.61 23.05 52.03 23.05"/></svg>