<svg id="Layer_1" data-name="Layer 1" xmlns="http://www.w3.org/2000/svg" viewBox="0 0 111 108"><defs><style>.cls-1{fill:#e1edff;}.cls-2{fill:none;stroke:#fff;stroke-miterlimit:10;stroke-width:3.15px;}.cls-3{fill:#0acf83;}.cls-4{fill:#a259ff;}.cls-5{fill:#f24e1e;}.cls-6{fill:#ff7262;}.cls-7{fill:#1abcfe;}</style></defs><title>Icono skill 6</title><circle class="cls-1" cx="56" cy="54" r="52"/><circle class="cls-2" cx="56" cy="54" r="46.48"/><path id="path0_fill" data-name="path0 fill" class="cls-3" d="M45.17,87A10.83,10.83,0,0,0,56,76.17V65.33H45.17a10.84,10.84,0,1,0,0,21.67Z"/><path id="path1_fill" data-name="path1 fill" class="cls-4" d="M34.33,54.5A10.84,10.84,0,0,1,45.17,43.67H56V65.33H45.17A10.84,10.84,0,0,1,34.33,54.5Z"/><path id="path1_fill-2" data-name="path1 fill" class="cls-5" d="M34.33,32.83A10.84,10.84,0,0,1,45.17,22H56V43.67H45.17A10.85,10.85,0,0,1,34.33,32.83Z"/><path id="path2_fill" data-name="path2 fill" class="cls-6" d="M56,22H66.83a10.84,10.84,0,1,1,0,21.67H56Z"/><path id="path3_fill" data-name="path3 fill" class="cls-7" d="M77.67,54.5A10.84,10.84,0,1,1,66.83,43.67,10.84,10.84,0,0,1,77.67,54.5Z"/></svg>